<svg width="24" height="24" viewBox="0 0 24 24" fill="none" xmlns="http://www.w3.org/2000/svg">
<g clip-path="url(#clip0_529_6147)">
<path d="M4.34141 0.984375C2.84141 0.984375 1.33953 2.10938 1.33953 4.35938L4.34141 10.3594L7.34141 4.35938C7.34141 2.10938 5.84141 0.984375 4.34141 0.984375ZM17.5742 2.8125C17.2508 2.82609 16.9367 2.8875 16.6742 2.94375L16.8523 3.76875C17.1148 3.71016 17.3867 3.67313 17.6164 3.65625L17.5742 2.8125ZM4.34141 2.85938C5.17109 2.85938 5.84141 3.53109 5.84141 4.35938C5.84141 5.18906 5.17109 5.85938 4.34141 5.85938C3.51313 5.85938 2.84141 5.18906 2.84141 4.35938C2.84141 3.53109 3.51313 2.85938 4.34141 2.85938ZM18.507 2.86875L18.3664 3.69844C18.5961 3.74672 18.8258 3.80719 19.0273 3.92813L19.4352 3.1875C19.1492 3.03516 18.8305 2.89828 18.507 2.86875ZM15.8117 3.18281C15.5258 3.29438 15.2398 3.39422 14.9961 3.49219L15.3289 4.26562C15.5867 4.15594 15.8586 4.06031 16.0883 3.97969L15.8117 3.18281ZM20.2039 3.81094L19.5617 4.35938C19.7305 4.5525 19.8617 4.79063 19.9648 4.98281L20.7195 4.60312C20.5602 4.29609 20.4195 4.06359 20.2039 3.81094ZM14.2133 3.85312C13.9273 3.99891 13.693 4.12875 13.4398 4.25625L13.8523 4.99687C14.0961 4.85625 14.3633 4.72031 14.5789 4.6125L14.2133 3.85312ZM12.6992 4.69219C12.4508 4.8375 12.207 4.98281 11.968 5.14219L12.4273 5.84531C12.657 5.69531 12.8961 5.55469 13.1305 5.41406L12.6992 4.69219ZM21.0102 5.53125C20.7336 5.57812 20.4523 5.61094 20.1758 5.64375C20.1945 5.87813 20.1805 6.13125 20.1336 6.32812L20.9539 6.52031C21.0008 6.18281 21.043 5.83594 21.0102 5.53125ZM11.2555 5.61094C11.0211 5.77031 10.7914 5.93437 10.557 6.09375L11.0445 6.78281C11.2695 6.61875 11.4992 6.46406 11.7289 6.30469L11.2555 5.61094ZM9.86797 6.6C9.63359 6.76875 9.38984 6.95625 9.18828 7.11094L9.69922 7.78125C9.95703 7.59375 10.1352 7.45313 10.3695 7.27969L9.86797 6.6ZM19.8523 6.975C19.7117 7.19063 19.5477 7.40625 19.3836 7.57031L19.9977 8.15625C20.1992 7.91719 20.4148 7.67344 20.5648 7.42969L19.8523 6.975ZM8.51797 7.63594C8.28828 7.81406 8.05859 7.99687 7.85703 8.16562L8.39141 8.81719C8.61172 8.63438 8.83672 8.44688 9.04297 8.29688L8.51797 7.63594ZM18.8023 8.10938C18.5867 8.28281 18.3617 8.45156 18.1555 8.59219L18.6383 9.28594C18.8867 9.11719 19.1305 8.93437 19.3414 8.76562L18.8023 8.10938ZM7.20547 8.71406C6.98516 8.89219 6.77422 9.07969 6.55859 9.2625L7.10703 9.90469C7.31797 9.72188 7.52891 9.53906 7.74453 9.36094L7.20547 8.71406ZM17.4664 9.04219C17.2273 9.18281 16.9789 9.32813 16.7539 9.45L17.157 10.1953C17.4102 10.0406 17.6961 9.90469 17.907 9.76406L17.4664 9.04219ZM5.91641 9.82031C5.70547 10.0078 5.49922 10.1953 5.28828 10.3875L5.85547 11.0156C6.06172 10.8281 6.27266 10.6406 6.47891 10.4531L5.91641 9.82031ZM16.018 9.83906C15.7695 9.96094 15.5211 10.0875 15.2727 10.2094L15.6336 10.9688C15.9242 10.8281 16.1398 10.7109 16.4023 10.5891L16.018 9.83906ZM14.518 10.5609C14.2602 10.6781 14.0117 10.7906 13.7492 10.8984L14.0914 11.6719C14.3492 11.5594 14.607 11.4422 14.8648 11.325L14.518 10.5609ZM4.66953 10.9688C4.43047 11.1797 4.26406 11.3438 4.04609 11.5547L4.64141 12.1641C4.86172 11.9531 5.03984 11.7703 5.24609 11.5922L4.66953 10.9688ZM12.9805 11.2406C12.7227 11.3484 12.4648 11.4609 12.207 11.5688L12.5352 12.3516C12.7977 12.2438 13.0555 12.1312 13.3133 12.0187L12.9805 11.2406ZM11.4289 11.8969C11.1711 12.0094 10.9133 12.1219 10.6508 12.225L10.9789 13.0078C11.2367 12.9 11.4992 12.7875 11.757 12.6797L11.4289 11.8969ZM20.0914 12.2344C18.5914 12.2344 17.0914 13.3594 17.0914 15.6094L20.0914 21.6094L23.0914 15.6094C23.0914 13.3594 21.5914 12.2344 20.0914 12.2344ZM9.87266 12.5531C9.60547 12.675 9.32422 12.7875 9.09453 12.8859L9.42734 13.6641C9.70391 13.5469 9.96641 13.4344 10.2008 13.3312L9.87266 12.5531ZM8.31641 13.2188C8.06328 13.3359 7.76797 13.4672 7.54297 13.5703L7.88984 14.3391C8.16641 14.2172 8.41016 14.0953 8.65391 13.9922L8.31641 13.2188ZM6.76953 13.9219C6.50703 14.0484 6.23516 14.1797 6.00078 14.2969L6.38047 15.0516C6.63359 14.9203 6.89609 14.7984 7.12578 14.6859L6.76953 13.9219ZM20.0914 14.1094C20.9211 14.1094 21.5914 14.7797 21.5914 15.6094C21.5914 16.4391 20.9211 17.1094 20.0914 17.1094C19.2617 17.1094 18.5914 16.4391 18.5914 15.6094C18.5914 14.7797 19.2617 14.1094 20.0914 14.1094ZM5.24141 14.6859C4.99297 14.8219 4.74453 14.9625 4.49141 15.1078L4.91328 15.8391C5.15234 15.6984 5.39609 15.5672 5.63984 15.4359L5.24141 14.6859ZM3.75547 15.5625C3.4925 15.7125 3.23844 15.9141 3.01953 16.0594L3.53047 16.7344C3.76344 16.5656 4.01422 16.3922 4.21484 16.2703L3.75547 15.5625ZM2.35391 16.6219C2.12891 16.8281 1.90719 17.0672 1.73516 17.2687L2.37734 17.8172C2.55781 17.5969 2.71484 17.4328 2.92578 17.2453L2.35391 16.6219ZM12.5633 16.6828L12.6383 17.5219C12.882 17.4797 13.1258 17.5078 13.3695 17.5453L13.5148 16.7156C13.2055 16.6688 12.8773 16.6359 12.5633 16.6828ZM10.8195 17.1516L11.1383 17.9344C11.382 17.8266 11.6352 17.7422 11.893 17.6625C11.8039 17.3953 11.7383 17.1234 11.668 16.8516C11.3727 16.9359 11.0773 17.0484 10.8195 17.1516ZM14.4523 17.1094L13.9742 17.8031C14.1711 17.9484 14.3633 18.1031 14.518 18.2953L15.1555 17.7422C14.9164 17.4984 14.7336 17.2688 14.4523 17.1094ZM10.0227 17.5312C9.76484 17.6625 9.51641 17.8125 9.26797 17.9578L9.69453 18.6844C9.93828 18.5531 10.1773 18.3984 10.4164 18.2719L10.0227 17.5312ZM1.22 18.0469C1.07844 18.3516 0.963594 18.6797 0.910156 18.9703L1.73984 19.1156C1.79047 18.8484 1.86313 18.6563 1.96953 18.4266C1.71219 18.3141 1.46656 18.1781 1.22 18.0469ZM8.53672 18.4125C8.29766 18.5672 8.06328 18.7219 7.82891 18.8812L8.29766 19.5844C8.53203 19.4297 8.76172 19.2703 8.99609 19.1156L8.53672 18.4125ZM15.6945 18.4688L14.9867 18.9281C15.1367 19.1531 15.282 19.3875 15.418 19.6266L16.1492 19.2047C15.9852 18.9422 15.868 18.7078 15.6945 18.4688ZM7.13047 19.3594C6.89609 19.5141 6.66172 19.6641 6.43203 19.8281L6.90078 20.5312C7.12578 20.3672 7.36484 20.2125 7.60391 20.0531L7.13047 19.3594ZM1.74922 19.8047C1.47781 19.8609 1.20406 19.9078 0.93125 19.9594C0.980469 20.2875 1.11219 20.6062 1.23125 20.8594L1.99297 20.4938C1.89125 20.2594 1.79469 20.0156 1.74922 19.8047ZM16.5664 19.9359L15.8352 20.3578C15.9805 20.6109 16.1492 20.8828 16.2852 21.0984L16.993 20.6437C16.8336 20.3953 16.6977 20.1609 16.5664 19.9359ZM5.73828 20.2875C5.50391 20.4328 5.27422 20.5734 5.03047 20.7094L5.44766 21.4453C5.69609 21.3 5.94453 21.1547 6.18359 21L5.73828 20.2875ZM2.39609 21.0516L1.81953 21.6703C2.08016 21.9187 2.40172 22.0828 2.75234 22.1578L2.93984 21.3375C2.73172 21.2953 2.53719 21.1922 2.39609 21.0516ZM4.31797 21.0656C4.08313 21.1734 3.83938 21.2578 3.58672 21.3094L3.77891 22.1344C4.07984 22.0734 4.36297 21.9609 4.64609 21.8438L4.31797 21.0656ZM17.457 21.2906L16.8055 21.8203C17.007 22.0688 17.2555 22.3078 17.4711 22.4766L17.9914 21.8109C17.7852 21.6516 17.607 21.4594 17.457 21.2906ZM18.5867 22.1109L18.3758 22.9313C18.7461 23.0063 19.0227 23.0297 19.3695 22.9922L19.2664 22.1531C19.0367 22.1906 18.8117 22.1672 18.5867 22.1109Z" fill="black"/>
</g>
<defs>
<clipPath id="clip0_529_6147">
<rect width="24" height="24" fill="white"/>
</clipPath>
</defs>
</svg>
